<?xml version="1.0" encoding="UTF-8" standalone="no"?>
<!DOCTYPE svg PUBLIC "-//W3C//DTD SVG 1.1//EN"
 "http://www.w3.org/Graphics/SVG/1.1/DTD/svg11.dtd">
<!-- Generated by graphviz version 2.47.0 (20210316.0004)
 -->
<!-- Title: dependencies Pages: 1 -->
<svg width="504pt" height="284pt"
 viewBox="0.00 0.00 504.00 284.00" xmlns="http://www.w3.org/2000/svg" xmlns:xlink="http://www.w3.org/1999/xlink">
<g id="graph0" class="graph" transform="scale(1 1) rotate(0) translate(4 280)">
<title>dependencies</title>
<polygon fill="white" stroke="transparent" points="-4,4 -4,-280 500,-280 500,4 -4,4"/>
<text text-anchor="start" x="227.01" y="-42.4" font-family="sans-serif" font-weight="bold" font-size="14.00">Legend</text>
<polygon fill="#ffffb3" stroke="transparent" points="14,-10 14,-30 34,-30 34,-10 14,-10"/>
<text text-anchor="start" x="37.63" y="-15.4" font-family="sans-serif" font-size="14.00"> &#160;Declarations</text>
<polygon fill="#8dd3c7" stroke="transparent" points="127,-10 127,-30 147,-30 147,-10 127,-10"/>
<text text-anchor="start" x="150.73" y="-15.4" font-family="sans-serif" font-size="14.00"> &#160;Module</text>
<polygon fill="#80b1d3" stroke="transparent" points="213,-10 213,-30 233,-30 233,-10 213,-10"/>
<text text-anchor="start" x="236.78" y="-15.4" font-family="sans-serif" font-size="14.00"> &#160;Bootstrap</text>
<polygon fill="#fdb462" stroke="transparent" points="310,-10 310,-30 330,-30 330,-10 310,-10"/>
<text text-anchor="start" x="333.67" y="-15.4" font-family="sans-serif" font-size="14.00"> &#160;Providers</text>
<polygon fill="#fb8072" stroke="transparent" points="406,-10 406,-30 426,-30 426,-10 406,-10"/>
<text text-anchor="start" x="429.73" y="-15.4" font-family="sans-serif" font-size="14.00"> &#160;Exports</text>
<g id="clust1" class="cluster">
<title>cluster_DynamodbModule</title>
<polygon fill="none" stroke="black" stroke-dasharray="1,5" points="88,-70 88,-268 408,-268 408,-70 88,-70"/>
</g>
<g id="clust4" class="cluster">
<title>cluster_DynamodbModule_exports</title>
<polygon fill="none" stroke="black" points="167,-208 167,-260 307,-260 307,-208 167,-208"/>
</g>
<g id="clust6" class="cluster">
<title>cluster_DynamodbModule_providers</title>
<polygon fill="none" stroke="black" points="218,-78 218,-130 400,-130 400,-78 218,-78"/>
</g>
<g id="clust3" class="cluster">
<title>cluster_DynamodbModule_imports</title>
<polygon fill="none" stroke="black" points="96,-78 96,-130 210,-130 210,-78 96,-78"/>
</g>
<!-- ConfigModule -->
<g id="node1" class="node">
<title>ConfigModule</title>
<polygon fill="#8dd3c7" stroke="black" points="202.44,-122 199.44,-126 178.44,-126 175.44,-122 103.56,-122 103.56,-86 202.44,-86 202.44,-122"/>
<text text-anchor="middle" x="153" y="-99.8" font-family="Times,serif" font-size="14.00">ConfigModule</text>
</g>
<!-- DynamodbModule -->
<g id="node2" class="node">
<title>DynamodbModule</title>
<polygon fill="#8dd3c7" stroke="black" points="297.76,-187 294.76,-191 273.76,-191 270.76,-187 176.24,-187 176.24,-151 297.76,-151 297.76,-187"/>
<text text-anchor="middle" x="237" y="-164.8" font-family="Times,serif" font-size="14.00">DynamodbModule</text>
</g>
<!-- ConfigModule&#45;&gt;DynamodbModule -->
<g id="edge1" class="edge">
<title>ConfigModule&#45;&gt;DynamodbModule</title>
<path fill="none" stroke="black" d="M189.17,-122.11C189.17,-122.11 189.17,-140.99 189.17,-140.99"/>
<polygon fill="black" stroke="black" points="185.67,-140.99 189.17,-150.99 192.67,-140.99 185.67,-140.99"/>
</g>
<!-- DynamodbService  -->
<g id="node3" class="node">
<title>DynamodbService </title>
<polygon fill="#fb8072" stroke="black" points="298.69,-252 175.31,-252 175.31,-216 298.69,-216 298.69,-252"/>
<text text-anchor="middle" x="237" y="-229.8" font-family="Times,serif" font-size="14.00">DynamodbService </text>
</g>
<!-- DynamodbModule&#45;&gt;DynamodbService  -->
<g id="edge2" class="edge">
<title>DynamodbModule&#45;&gt;DynamodbService </title>
<path fill="none" stroke="black" stroke-dasharray="5,2" d="M237,-187.11C237,-187.11 237,-205.99 237,-205.99"/>
<polygon fill="black" stroke="black" points="233.5,-205.99 237,-215.99 240.5,-205.99 233.5,-205.99"/>
</g>
<!-- DynamodbService -->
<g id="node4" class="node">
<title>DynamodbService</title>
<ellipse fill="#fdb462" stroke="black" cx="309" cy="-104" rx="82.81" ry="18"/>
<text text-anchor="middle" x="309" y="-99.8" font-family="Times,serif" font-size="14.00">DynamodbService</text>
</g>
<!-- DynamodbService&#45;&gt;DynamodbModule -->
<g id="edge3" class="edge">
<title>DynamodbService&#45;&gt;DynamodbModule</title>
<path fill="none" stroke="black" d="M261.99,-119.08C261.99,-119.08 261.99,-140.76 261.99,-140.76"/>
<polygon fill="black" stroke="black" points="258.49,-140.76 261.99,-150.76 265.49,-140.76 258.49,-140.76"/>
</g>
</g>
</svg>
