<?xml version="1.0" encoding="UTF-8" standalone="no"?>
<!DOCTYPE svg PUBLIC "-//W3C//DTD SVG 1.1//EN"
 "http://www.w3.org/Graphics/SVG/1.1/DTD/svg11.dtd">
<!-- Generated by graphviz version 2.47.0 (20210316.0004)
 -->
<!-- Title: dependencies Pages: 1 -->
<svg width="504pt" height="211pt"
 viewBox="0.00 0.00 504.00 211.00" xmlns="http://www.w3.org/2000/svg" xmlns:xlink="http://www.w3.org/1999/xlink">
<g id="graph0" class="graph" transform="scale(1 1) rotate(0) translate(4 207)">
<title>dependencies</title>
<polygon fill="white" stroke="transparent" points="-4,4 -4,-207 500,-207 500,4 -4,4"/>
<text text-anchor="start" x="227.01" y="-42.4" font-family="sans-serif" font-weight="bold" font-size="14.00">Legend</text>
<polygon fill="#ffffb3" stroke="transparent" points="14,-10 14,-30 34,-30 34,-10 14,-10"/>
<text text-anchor="start" x="37.63" y="-15.4" font-family="sans-serif" font-size="14.00"> &#160;Declarations</text>
<polygon fill="#8dd3c7" stroke="transparent" points="127,-10 127,-30 147,-30 147,-10 127,-10"/>
<text text-anchor="start" x="150.73" y="-15.4" font-family="sans-serif" font-size="14.00"> &#160;Module</text>
<polygon fill="#80b1d3" stroke="transparent" points="213,-10 213,-30 233,-30 233,-10 213,-10"/>
<text text-anchor="start" x="236.78" y="-15.4" font-family="sans-serif" font-size="14.00"> &#160;Bootstrap</text>
<polygon fill="#fdb462" stroke="transparent" points="310,-10 310,-30 330,-30 330,-10 310,-10"/>
<text text-anchor="start" x="333.67" y="-15.4" font-family="sans-serif" font-size="14.00"> &#160;Providers</text>
<polygon fill="#fb8072" stroke="transparent" points="406,-10 406,-30 426,-30 426,-10 406,-10"/>
<text text-anchor="start" x="429.73" y="-15.4" font-family="sans-serif" font-size="14.00"> &#160;Exports</text>
<g id="clust1" class="cluster">
<title>cluster_AppModule</title>
<polygon fill="none" stroke="black" stroke-dasharray="1,5" points="114,-70 114,-195 382,-195 382,-70 114,-70"/>
</g>
<g id="clust3" class="cluster">
<title>cluster_AppModule_imports</title>
<polygon fill="none" stroke="black" points="122,-78 122,-130 374,-130 374,-78 122,-78"/>
</g>
<!-- DynamodbModule -->
<g id="node1" class="node">
<title>DynamodbModule</title>
<polygon fill="#8dd3c7" stroke="black" points="365.76,-122 362.76,-126 341.76,-126 338.76,-122 244.24,-122 244.24,-86 365.76,-86 365.76,-122"/>
<text text-anchor="middle" x="305" y="-99.8" font-family="Times,serif" font-size="14.00">DynamodbModule</text>
</g>
<!-- AppModule -->
<g id="node3" class="node">
<title>AppModule</title>
<polygon fill="#8dd3c7" stroke="black" points="282.66,-187 279.66,-191 258.66,-191 255.66,-187 199.34,-187 199.34,-151 282.66,-151 282.66,-187"/>
<text text-anchor="middle" x="241" y="-164.8" font-family="Times,serif" font-size="14.00">AppModule</text>
</g>
<!-- DynamodbModule&#45;&gt;AppModule -->
<g id="edge1" class="edge">
<title>DynamodbModule&#45;&gt;AppModule</title>
<path fill="none" stroke="black" d="M263.47,-122.11C263.47,-122.11 263.47,-140.99 263.47,-140.99"/>
<polygon fill="black" stroke="black" points="259.97,-140.99 263.47,-150.99 266.97,-140.99 259.97,-140.99"/>
</g>
<!-- ForumModule -->
<g id="node2" class="node">
<title>ForumModule</title>
<polygon fill="#8dd3c7" stroke="black" points="226.38,-122 223.38,-126 202.38,-126 199.38,-122 129.62,-122 129.62,-86 226.38,-86 226.38,-122"/>
<text text-anchor="middle" x="178" y="-99.8" font-family="Times,serif" font-size="14.00">ForumModule</text>
</g>
<!-- ForumModule&#45;&gt;AppModule -->
<g id="edge2" class="edge">
<title>ForumModule&#45;&gt;AppModule</title>
<path fill="none" stroke="black" d="M212.81,-122.11C212.81,-122.11 212.81,-140.99 212.81,-140.99"/>
<polygon fill="black" stroke="black" points="209.31,-140.99 212.81,-150.99 216.31,-140.99 209.31,-140.99"/>
</g>
</g>
</svg>
