<?xml version="1.0" encoding="UTF-8" standalone="no"?>
<!DOCTYPE svg PUBLIC "-//W3C//DTD SVG 1.1//EN"
 "http://www.w3.org/Graphics/SVG/1.1/DTD/svg11.dtd">
<!-- Generated by graphviz version 2.47.0 (20210316.0004)
 -->
<!-- Title: dependencies Pages: 1 -->
<svg width="504pt" height="211pt"
 viewBox="0.00 0.00 504.00 211.00" xmlns="http://www.w3.org/2000/svg" xmlns:xlink="http://www.w3.org/1999/xlink">
<g id="graph0" class="graph" transform="scale(1 1) rotate(0) translate(4 207)">
<title>dependencies</title>
<polygon fill="white" stroke="transparent" points="-4,4 -4,-207 500,-207 500,4 -4,4"/>
<text text-anchor="start" x="227.01" y="-42.4" font-family="sans-serif" font-weight="bold" font-size="14.00">Legend</text>
<polygon fill="#ffffb3" stroke="transparent" points="14,-10 14,-30 34,-30 34,-10 14,-10"/>
<text text-anchor="start" x="37.63" y="-15.4" font-family="sans-serif" font-size="14.00"> &#160;Declarations</text>
<polygon fill="#8dd3c7" stroke="transparent" points="127,-10 127,-30 147,-30 147,-10 127,-10"/>
<text text-anchor="start" x="150.73" y="-15.4" font-family="sans-serif" font-size="14.00"> &#160;Module</text>
<polygon fill="#80b1d3" stroke="transparent" points="213,-10 213,-30 233,-30 233,-10 213,-10"/>
<text text-anchor="start" x="236.78" y="-15.4" font-family="sans-serif" font-size="14.00"> &#160;Bootstrap</text>
<polygon fill="#fdb462" stroke="transparent" points="310,-10 310,-30 330,-30 330,-10 310,-10"/>
<text text-anchor="start" x="333.67" y="-15.4" font-family="sans-serif" font-size="14.00"> &#160;Providers</text>
<polygon fill="#fb8072" stroke="transparent" points="406,-10 406,-30 426,-30 426,-10 406,-10"/>
<text text-anchor="start" x="429.73" y="-15.4" font-family="sans-serif" font-size="14.00"> &#160;Exports</text>
<g id="clust1" class="cluster">
<title>cluster_AppModule</title>
<polygon fill="none" stroke="black" stroke-dasharray="1,5" points="56,-70 56,-195 440,-195 440,-70 56,-70"/>
</g>
<g id="clust3" class="cluster">
<title>cluster_AppModule_imports</title>
<polygon fill="none" stroke="black" points="64,-78 64,-130 432,-130 432,-78 64,-78"/>
</g>
<!-- ConfigModule -->
<g id="node1" class="node">
<title>ConfigModule</title>
<polygon fill="#8dd3c7" stroke="black" points="424.44,-122 421.44,-126 400.44,-126 397.44,-122 325.56,-122 325.56,-86 424.44,-86 424.44,-122"/>
<text text-anchor="middle" x="375" y="-99.8" font-family="Times,serif" font-size="14.00">ConfigModule</text>
</g>
<!-- AppModule -->
<g id="node4" class="node">
<title>AppModule</title>
<polygon fill="#8dd3c7" stroke="black" points="288.66,-187 285.66,-191 264.66,-191 261.66,-187 205.34,-187 205.34,-151 288.66,-151 288.66,-187"/>
<text text-anchor="middle" x="247" y="-164.8" font-family="Times,serif" font-size="14.00">AppModule</text>
</g>
<!-- ConfigModule&#45;&gt;AppModule -->
<g id="edge1" class="edge">
<title>ConfigModule&#45;&gt;AppModule</title>
<path fill="none" stroke="black" d="M375,-122.11C375,-141.34 375,-169 375,-169 375,-169 298.91,-169 298.91,-169"/>
<polygon fill="black" stroke="black" points="298.91,-165.5 288.91,-169 298.91,-172.5 298.91,-165.5"/>
</g>
<!-- DynamodbModule -->
<g id="node2" class="node">
<title>DynamodbModule</title>
<polygon fill="#8dd3c7" stroke="black" points="307.76,-122 304.76,-126 283.76,-126 280.76,-122 186.24,-122 186.24,-86 307.76,-86 307.76,-122"/>
<text text-anchor="middle" x="247" y="-99.8" font-family="Times,serif" font-size="14.00">DynamodbModule</text>
</g>
<!-- DynamodbModule&#45;&gt;AppModule -->
<g id="edge2" class="edge">
<title>DynamodbModule&#45;&gt;AppModule</title>
<path fill="none" stroke="black" d="M247,-122.11C247,-122.11 247,-140.99 247,-140.99"/>
<polygon fill="black" stroke="black" points="243.5,-140.99 247,-150.99 250.5,-140.99 243.5,-140.99"/>
</g>
<!-- ForumModule -->
<g id="node3" class="node">
<title>ForumModule</title>
<polygon fill="#8dd3c7" stroke="black" points="168.38,-122 165.38,-126 144.38,-126 141.38,-122 71.62,-122 71.62,-86 168.38,-86 168.38,-122"/>
<text text-anchor="middle" x="120" y="-99.8" font-family="Times,serif" font-size="14.00">ForumModule</text>
</g>
<!-- ForumModule&#45;&gt;AppModule -->
<g id="edge3" class="edge">
<title>ForumModule&#45;&gt;AppModule</title>
<path fill="none" stroke="black" d="M120,-122.11C120,-141.34 120,-169 120,-169 120,-169 195.06,-169 195.06,-169"/>
<polygon fill="black" stroke="black" points="195.06,-172.5 205.06,-169 195.06,-165.5 195.06,-172.5"/>
</g>
</g>
</svg>
