<?xml version="1.0" encoding="UTF-8" standalone="no"?>
<!DOCTYPE svg PUBLIC "-//W3C//DTD SVG 1.1//EN"
 "http://www.w3.org/Graphics/SVG/1.1/DTD/svg11.dtd">
<!-- Generated by graphviz version 2.47.0 (20210316.0004)
 -->
<!-- Title: dependencies Pages: 1 -->
<svg width="504pt" height="211pt"
 viewBox="0.00 0.00 504.00 211.00" xmlns="http://www.w3.org/2000/svg" xmlns:xlink="http://www.w3.org/1999/xlink">
<g id="graph0" class="graph" transform="scale(1 1) rotate(0) translate(4 207)">
<title>dependencies</title>
<polygon fill="white" stroke="transparent" points="-4,4 -4,-207 500,-207 500,4 -4,4"/>
<text text-anchor="start" x="227.01" y="-42.4" font-family="sans-serif" font-weight="bold" font-size="14.00">Legend</text>
<polygon fill="#ffffb3" stroke="transparent" points="14,-10 14,-30 34,-30 34,-10 14,-10"/>
<text text-anchor="start" x="37.63" y="-15.4" font-family="sans-serif" font-size="14.00"> &#160;Declarations</text>
<polygon fill="#8dd3c7" stroke="transparent" points="127,-10 127,-30 147,-30 147,-10 127,-10"/>
<text text-anchor="start" x="150.73" y="-15.4" font-family="sans-serif" font-size="14.00"> &#160;Module</text>
<polygon fill="#80b1d3" stroke="transparent" points="213,-10 213,-30 233,-30 233,-10 213,-10"/>
<text text-anchor="start" x="236.78" y="-15.4" font-family="sans-serif" font-size="14.00"> &#160;Bootstrap</text>
<polygon fill="#fdb462" stroke="transparent" points="310,-10 310,-30 330,-30 330,-10 310,-10"/>
<text text-anchor="start" x="333.67" y="-15.4" font-family="sans-serif" font-size="14.00"> &#160;Providers</text>
<polygon fill="#fb8072" stroke="transparent" points="406,-10 406,-30 426,-30 426,-10 406,-10"/>
<text text-anchor="start" x="429.73" y="-15.4" font-family="sans-serif" font-size="14.00"> &#160;Exports</text>
<g id="clust1" class="cluster">
<title>cluster_ForumModule</title>
<polygon fill="none" stroke="black" stroke-dasharray="1,5" points="8,-70 8,-195 488,-195 488,-70 8,-70"/>
</g>
<g id="clust6" class="cluster">
<title>cluster_ForumModule_providers</title>
<polygon fill="none" stroke="black" points="16,-78 16,-130 480,-130 480,-78 16,-78"/>
</g>
<!-- ForumPolice -->
<g id="node1" class="node">
<title>ForumPolice</title>
<ellipse fill="#fdb462" stroke="black" cx="411" cy="-104" rx="60.85" ry="18"/>
<text text-anchor="middle" x="411" y="-99.8" font-family="Times,serif" font-size="14.00">ForumPolice</text>
</g>
<!-- ForumModule -->
<g id="node4" class="node">
<title>ForumModule</title>
<polygon fill="#8dd3c7" stroke="black" points="301.38,-187 298.38,-191 277.38,-191 274.38,-187 204.62,-187 204.62,-151 301.38,-151 301.38,-187"/>
<text text-anchor="middle" x="253" y="-164.8" font-family="Times,serif" font-size="14.00">ForumModule</text>
</g>
<!-- ForumPolice&#45;&gt;ForumModule -->
<g id="edge1" class="edge">
<title>ForumPolice&#45;&gt;ForumModule</title>
<path fill="none" stroke="black" d="M411,-122.11C411,-141.34 411,-169 411,-169 411,-169 311.69,-169 311.69,-169"/>
<polygon fill="black" stroke="black" points="311.69,-165.5 301.69,-169 311.69,-172.5 311.69,-165.5"/>
</g>
<!-- ForumRepository -->
<g id="node2" class="node">
<title>ForumRepository</title>
<ellipse fill="#fdb462" stroke="black" cx="253" cy="-104" rx="79.33" ry="18"/>
<text text-anchor="middle" x="253" y="-99.8" font-family="Times,serif" font-size="14.00">ForumRepository</text>
</g>
<!-- ForumRepository&#45;&gt;ForumModule -->
<g id="edge2" class="edge">
<title>ForumRepository&#45;&gt;ForumModule</title>
<path fill="none" stroke="black" d="M253,-122.11C253,-122.11 253,-140.99 253,-140.99"/>
<polygon fill="black" stroke="black" points="249.5,-140.99 253,-150.99 256.5,-140.99 249.5,-140.99"/>
</g>
<!-- ForumService -->
<g id="node3" class="node">
<title>ForumService</title>
<ellipse fill="#fdb462" stroke="black" cx="90" cy="-104" rx="65.99" ry="18"/>
<text text-anchor="middle" x="90" y="-99.8" font-family="Times,serif" font-size="14.00">ForumService</text>
</g>
<!-- ForumService&#45;&gt;ForumModule -->
<g id="edge3" class="edge">
<title>ForumService&#45;&gt;ForumModule</title>
<path fill="none" stroke="black" d="M90,-122.11C90,-141.34 90,-169 90,-169 90,-169 194.54,-169 194.54,-169"/>
<polygon fill="black" stroke="black" points="194.54,-172.5 204.54,-169 194.54,-165.5 194.54,-172.5"/>
</g>
</g>
</svg>
