<?xml version="1.0" encoding="UTF-8" standalone="no"?>
<!DOCTYPE svg PUBLIC "-//W3C//DTD SVG 1.1//EN"
 "http://www.w3.org/Graphics/SVG/1.1/DTD/svg11.dtd">
<!-- Generated by graphviz version 2.47.0 (20210316.0004)
 -->
<!-- Title: dependencies Pages: 1 -->
<svg width="827pt" height="298pt"
 viewBox="0.00 0.00 827.00 298.00" xmlns="http://www.w3.org/2000/svg" xmlns:xlink="http://www.w3.org/1999/xlink">
<g id="graph0" class="graph" transform="scale(1 1) rotate(0) translate(4 294)">
<title>dependencies</title>
<polygon fill="white" stroke="transparent" points="-4,4 -4,-294 823,-294 823,4 -4,4"/>
<text text-anchor="start" x="388.51" y="-42.4" font-family="sans-serif" font-weight="bold" font-size="14.00">Legend</text>
<polygon fill="#ffffb3" stroke="transparent" points="175.5,-10 175.5,-30 195.5,-30 195.5,-10 175.5,-10"/>
<text text-anchor="start" x="199.13" y="-15.4" font-family="sans-serif" font-size="14.00"> &#160;Declarations</text>
<polygon fill="#8dd3c7" stroke="transparent" points="288.5,-10 288.5,-30 308.5,-30 308.5,-10 288.5,-10"/>
<text text-anchor="start" x="312.23" y="-15.4" font-family="sans-serif" font-size="14.00"> &#160;Module</text>
<polygon fill="#80b1d3" stroke="transparent" points="374.5,-10 374.5,-30 394.5,-30 394.5,-10 374.5,-10"/>
<text text-anchor="start" x="398.28" y="-15.4" font-family="sans-serif" font-size="14.00"> &#160;Bootstrap</text>
<polygon fill="#fdb462" stroke="transparent" points="471.5,-10 471.5,-30 491.5,-30 491.5,-10 471.5,-10"/>
<text text-anchor="start" x="495.17" y="-15.4" font-family="sans-serif" font-size="14.00"> &#160;Providers</text>
<polygon fill="#fb8072" stroke="transparent" points="567.5,-10 567.5,-30 587.5,-30 587.5,-10 567.5,-10"/>
<text text-anchor="start" x="591.23" y="-15.4" font-family="sans-serif" font-size="14.00"> &#160;Exports</text>
<g id="clust1" class="cluster">
<title>cluster_AppModule</title>
<polygon fill="none" stroke="black" stroke-dasharray="1,5" points="189,-146 189,-274 457,-274 457,-146 189,-146"/>
</g>
<g id="clust3" class="cluster">
<title>cluster_AppModule_imports</title>
<polygon fill="none" stroke="black" points="197,-154 197,-206 449,-206 449,-154 197,-154"/>
</g>
<g id="clust7" class="cluster">
<title>cluster_DynamodbModule</title>
<polygon fill="none" stroke="black" stroke-dasharray="1,5" points="465,-214 465,-282 811,-282 811,-214 465,-214"/>
</g>
<g id="clust10" class="cluster">
<title>cluster_DynamodbModule_exports</title>
<polygon fill="none" stroke="black" points="663,-222 663,-274 803,-274 803,-222 663,-222"/>
</g>
<g id="clust12" class="cluster">
<title>cluster_DynamodbModule_providers</title>
<polygon fill="none" stroke="black" points="473,-222 473,-274 655,-274 655,-222 473,-222"/>
</g>
<g id="clust13" class="cluster">
<title>cluster_ForumModule</title>
<polygon fill="none" stroke="black" stroke-dasharray="1,5" points="8,-70 8,-138 488,-138 488,-70 8,-70"/>
</g>
<g id="clust18" class="cluster">
<title>cluster_ForumModule_providers</title>
<polygon fill="none" stroke="black" points="16,-78 16,-130 480,-130 480,-78 16,-78"/>
</g>
<!-- DynamodbModule -->
<g id="node1" class="node">
<title>DynamodbModule</title>
<polygon fill="#8dd3c7" stroke="black" points="440.76,-198 437.76,-202 416.76,-202 413.76,-198 319.24,-198 319.24,-162 440.76,-162 440.76,-198"/>
<text text-anchor="middle" x="380" y="-175.8" font-family="Times,serif" font-size="14.00">DynamodbModule</text>
</g>
<!-- AppModule -->
<g id="node3" class="node">
<title>AppModule</title>
<polygon fill="#8dd3c7" stroke="black" points="357.66,-266 354.66,-270 333.66,-270 330.66,-266 274.34,-266 274.34,-230 357.66,-230 357.66,-266"/>
<text text-anchor="middle" x="316" y="-243.8" font-family="Times,serif" font-size="14.00">AppModule</text>
</g>
<!-- DynamodbModule&#45;&gt;AppModule -->
<g id="edge1" class="edge">
<title>DynamodbModule&#45;&gt;AppModule</title>
<path fill="none" stroke="black" d="M338.47,-198.22C338.47,-198.22 338.47,-219.73 338.47,-219.73"/>
<polygon fill="black" stroke="black" points="334.97,-219.73 338.47,-229.73 341.97,-219.73 334.97,-219.73"/>
</g>
<!-- DynamodbService  -->
<g id="node4" class="node">
<title>DynamodbService </title>
<polygon fill="#fb8072" stroke="black" points="794.69,-266 671.31,-266 671.31,-230 794.69,-230 794.69,-266"/>
<text text-anchor="middle" x="733" y="-243.8" font-family="Times,serif" font-size="14.00">DynamodbService </text>
</g>
<!-- DynamodbModule&#45;&gt;DynamodbService  -->
<g id="edge3" class="edge">
<title>DynamodbModule&#45;&gt;DynamodbService </title>
<path fill="none" stroke="black" stroke-dasharray="5,2" d="M441.08,-180C542.12,-180 733,-180 733,-180 733,-180 733,-219.78 733,-219.78"/>
<polygon fill="black" stroke="black" points="729.5,-219.78 733,-229.78 736.5,-219.78 729.5,-219.78"/>
</g>
<!-- ForumModule -->
<g id="node2" class="node">
<title>ForumModule</title>
<polygon fill="#8dd3c7" stroke="black" points="301.38,-198 298.38,-202 277.38,-202 274.38,-198 204.62,-198 204.62,-162 301.38,-162 301.38,-198"/>
<text text-anchor="middle" x="253" y="-175.8" font-family="Times,serif" font-size="14.00">ForumModule</text>
</g>
<!-- ForumModule&#45;&gt;AppModule -->
<g id="edge2" class="edge">
<title>ForumModule&#45;&gt;AppModule</title>
<path fill="none" stroke="black" d="M287.81,-198.22C287.81,-198.22 287.81,-219.73 287.81,-219.73"/>
<polygon fill="black" stroke="black" points="284.31,-219.73 287.81,-229.73 291.31,-219.73 284.31,-219.73"/>
</g>
<!-- DynamodbService -->
<g id="node5" class="node">
<title>DynamodbService</title>
<ellipse fill="#fdb462" stroke="black" cx="564" cy="-248" rx="82.81" ry="18"/>
<text text-anchor="middle" x="564" y="-243.8" font-family="Times,serif" font-size="14.00">DynamodbService</text>
</g>
<!-- DynamodbService&#45;&gt;DynamodbModule -->
<g id="edge4" class="edge">
<title>DynamodbService&#45;&gt;DynamodbModule</title>
<path fill="none" stroke="black" d="M480.71,-248C439.88,-248 399.35,-248 399.35,-248 399.35,-248 399.35,-208.22 399.35,-208.22"/>
<polygon fill="black" stroke="black" points="402.85,-208.22 399.35,-198.22 395.85,-208.22 402.85,-208.22"/>
</g>
<!-- ForumPolice -->
<g id="node6" class="node">
<title>ForumPolice</title>
<ellipse fill="#fdb462" stroke="black" cx="411" cy="-104" rx="60.85" ry="18"/>
<text text-anchor="middle" x="411" y="-99.8" font-family="Times,serif" font-size="14.00">ForumPolice</text>
</g>
<!-- ForumPolice&#45;&gt;ForumModule -->
<g id="edge5" class="edge">
<title>ForumPolice&#45;&gt;ForumModule</title>
<path fill="none" stroke="black" d="M395.48,-121.67C395.48,-131.59 395.48,-142 395.48,-142 395.48,-142 269.15,-142 269.15,-142 269.15,-142 269.15,-151.89 269.15,-151.89"/>
<polygon fill="black" stroke="black" points="265.65,-151.89 269.15,-161.89 272.65,-151.89 265.65,-151.89"/>
</g>
<!-- ForumRepository -->
<g id="node7" class="node">
<title>ForumRepository</title>
<ellipse fill="#fdb462" stroke="black" cx="253" cy="-104" rx="79.33" ry="18"/>
<text text-anchor="middle" x="253" y="-99.8" font-family="Times,serif" font-size="14.00">ForumRepository</text>
</g>
<!-- ForumRepository&#45;&gt;ForumModule -->
<g id="edge6" class="edge">
<title>ForumRepository&#45;&gt;ForumModule</title>
<path fill="none" stroke="black" d="M236.85,-121.63C236.85,-121.63 236.85,-151.94 236.85,-151.94"/>
<polygon fill="black" stroke="black" points="233.35,-151.94 236.85,-161.94 240.35,-151.94 233.35,-151.94"/>
</g>
<!-- ForumService -->
<g id="node8" class="node">
<title>ForumService</title>
<ellipse fill="#fdb462" stroke="black" cx="90" cy="-104" rx="65.99" ry="18"/>
<text text-anchor="middle" x="90" y="-99.8" font-family="Times,serif" font-size="14.00">ForumService</text>
</g>
<!-- ForumService&#45;&gt;ForumModule -->
<g id="edge7" class="edge">
<title>ForumService&#45;&gt;ForumModule</title>
<path fill="none" stroke="black" d="M90,-122.01C90,-144.49 90,-180 90,-180 90,-180 194.54,-180 194.54,-180"/>
<polygon fill="black" stroke="black" points="194.54,-183.5 204.54,-180 194.54,-176.5 194.54,-183.5"/>
</g>
</g>
</svg>
